<svg xmlns="http://www.w3.org/2000/svg" xmlns:xlink="http://www.w3.org/1999/xlink" xmlns:inkscape="http://www.inkscape.org/namespaces/inkscape" version="1.1" width="439" height="250" viewBox="0 0 439 250">
<defs>
<clipPath id="clip_1">
<path d="M0 0H439V250H0Z"/>
</clipPath>
<clipPath id="clip_2">
<path d="M0 0H439V250H0Z"/>
</clipPath>
<clipPath id="clip_3">
<path d="M0 0H439V250H0Z"/>
</clipPath>
<clipPath id="clip_4">
<path d="M0 0H439V250H0Z"/>
</clipPath>
<clipPath id="clip_5">
<path d="M0 0H439V250H0Z"/>
</clipPath>
<clipPath id="clip_6">
<path d="M0 0H439V250H0Z"/>
</clipPath>
<clipPath id="clip_7">
<path d="M0 0H439V250H0Z"/>
</clipPath>
<clipPath id="clip_8">
<path d="M0 0H439V250H0Z"/>
</clipPath>
<clipPath id="clip_9">
<path d="M0 0H439V250H0Z"/>
</clipPath>
<path id="font_10_1" d="M.44900514-.013000488C.37433879-.013000488 .30700175 .0024973553 .24699402 .033493043 .18699646 .0644989 .13999431 .10749817 .10598755 .16249085 .07199097 .2174937 .054992677 .27999879 .054992677 .3500061 .054992677 .42066447 .07215881 .4834951 .10649109 .5384979 .14083354 .5935008 .18800354 .6363322 .2480011 .6669922 .30799867 .69766238 .3753306 .71299746 .44999696 .71299746 .5193329 .71299746 .5818329 .7003276 .63749697 .6749878 .693161 .6496582 .73733016 .61632797 .7700043 .57499697L.6649933 .5050049C.6403351 .5329997 .6093394 .55466207 .5720062 .56999209 .53467306 .5853322 .4940033 .5930023 .44999696 .5930023 .3993276 .5930023 .3538259 .5828349 .31349183 .5625 .27316795 .5421651 .24150594 .51349899 .21850586 .47650147 .19550579 .439504 .18400574 .39733888 .18400574 .3500061 .18400574 .30267335 .19517009 .260671 .21749878 .22399903 .23983765 .18733724 .27116905 .15867107 .31149293 .13800049 .351827 .11732992 .3976644 .10699463 .44900514 .10699463 .4956665 .10699463 .5384979 .115493778 .5774994 .13249207 .61650088 .14950054 .64800009 .17433675 .6719971 .20700073L.7749939 .1329956C.73966476 .08566284 .6931661 .049494428 .63549807 .024490357 .57783-.00050354006 .5156657-.013000488 .44900514-.013000488Z"/>
<path id="font_10_2" d="M.34100343-.013000488C.2856649-.013000488 .23582967-.001836141 .1914978 .020492554 .14716594 .04283142 .11233012 .07400004 .08699036 .11399841 .061660768 .15399678 .04899597 .19966634 .04899597 .25100709 .04899597 .30233766 .061660768 .34816996 .08699036 .38850404 .11233012 .4288381 .14716594 .46016947 .1914978 .48249818 .23582967 .50483706 .2856649 .51600649 .34100343 .51600649 .3963318 .51600649 .4461619 .50483706 .49049378 .48249818 .5348358 .46016947 .56967166 .4288381 .5950012 .38850404 .6203308 .34816996 .6329956 .30233766 .6329956 .25100709 .6329956 .19966634 .6203308 .15399678 .5950012 .11399841 .56967166 .07400004 .5348358 .04283142 .49049378 .020492554 .4461619-.001836141 .3963318-.013000488 .34100343-.013000488M.34100343 .09700012C.39233399 .09700012 .4338328 .11116537 .46549989 .13949585 .49716697 .1678365 .5130005 .20500691 .5130005 .25100709 .5130005 .29766847 .49716697 .33533225 .46549989 .3639984 .4338328 .39266459 .39233399 .40699769 .34100343 .40699769 .28967286 .40699769 .24817403 .39266459 .21650696 .3639984 .18483989 .33533225 .16900635 .29766847 .16900635 .25100709 .16900635 .20500691 .18483989 .1678365 .21650696 .13949585 .24817403 .11116537 .28967286 .09700012 .34100343 .09700012Z"/>
<path id="font_10_3" d="M.37399293 .51600649C.41533409 .51600649 .45283509 .5076701 .48649598 .4909973 .52016708 .47433473 .5464986 .45066834 .5654907 .41999818 .584493 .389328 .59399417 .35432945 .59399417 .31500245V0H.477005V.29299928C.477005 .32699586 .46533714 .3544922 .44200135 .37548829 .41866557 .39649455 .3876648 .40699769 .34899903 .40699769 .30900065 .40699769 .27383424 .3963318 .24349976 .375 .21316529 .3536682 .19799805 .32466636 .19799805 .28799439V0H.08099365V.503006H.18400574L.19099427 .43200685C.21033223 .45866905 .23599752 .4793345 .2679901 .4940033 .2999929 .50867208 .33532716 .51600649 .37399293 .51600649Z"/>
<path id="font_10_4" d="M.4909973 .037002565C.44899497 .0036671956 .3953298-.013000488 .33000184-.013000488 .26400248-.013000488 .21333313 .0033315023 .17799378 .035995485 .1426646 .06866964 .125 .1163381 .125 .17900086V.397995H.014007568V.503006H.125V.66400149H.2420044V.503006H.45799256V.397995H.2420044V.18699646C.2420044 .1269989 .27433778 .09700012 .33900453 .09700012 .3769989 .09700012 .4106649 .10866801 .44000245 .13200379L.4909973 .037002565Z"/>
<path id="font_10_5" d="M.33299256 .51600649C.4083303 .51600649 .46583048 .4980062 .50549319 .46200563 .545166 .42600505 .56500247 .3726705 .56500247 .30200196V0H.46299745L.45500184 .07699585C.43367005 .04832967 .40500389 .026163737 .3690033 .010498047 .33300273-.005167643 .29533387-.013000488 .2559967-.013000488 .22200012-.013000488 .19033306-.0068359377 .16099549 .005493164 .13166809 .017832438 .10800171 .03633626 .08999634 .06100464 .07200114 .08567301 .06300354 .11500549 .06300354 .14900208 .06300354 .20299785 .08483378 .24349468 .12849427 .27049256 .17216492 .2975006 .22466533 .31100465 .28599549 .31100465 .34066264 .31100465 .39499919 .30367027 .44900514 .28900147V.30000306C.44900514 .3733368 .40367127 .41000367 .31300355 .41000367 .28300477 .41000367 .2530009 .40583293 .22299195 .39749146 .19299317 .38916017 .16633098 .3766632 .14300537 .3600006L.09599304 .44500733C.12533061 .4663391 .16049703 .48350526 .20149231 .49650575 .24249776 .5095062 .28633119 .51600649 .33299256 .51600649M.28199769 .087005618C.31000266 .087005618 .33666993 .09200541 .3619995 .102005008 .3873291 .1120046 .40816245 .126002 .4244995 .14399719 .44083659 .16200257 .44900514 .18300374 .44900514 .20700073 .40433757 .22033692 .3566691 .227005 .30599977 .227005 .2679952 .227005 .23782857 .22100322 .21549988 .20899964 .19317119 .19699605 .18200684 .17866516 .18200684 .15400696 .18200684 .132665 .19100444 .11616007 .20899964 .10449219 .22699483 .09283447 .2513275 .087005618 .28199769 .087005618Z"/>
<path id="font_10_6" d="M.33900453-.013000488C.28366599-.013000488 .23399353-.0016682943 .18998719 .020996094 .14599101 .04366048 .11149088 .075159709 .08648682 .115493778 .06149292 .15582784 .04899597 .20132955 .04899597 .2519989 .04899597 .30266825 .06149292 .34816996 .08648682 .38850404 .11149088 .4288381 .14615886 .46016947 .19049073 .48249818 .23483277 .50483706 .28433738 .51600649 .33900453 .51600649 .3816681 .51600649 .42133079 .5093384 .45799256 .4960022 .49466453 .48266603 .5256653 .46366374 .5509949 .43899537L.46699525 .3600006C.45299784 .3746694 .43499757 .38616944 .41299439 .39450074 .39100138 .40283204 .3663381 .40699769 .33900453 .40699769 .28900657 .40699769 .24817403 .39266459 .21650696 .3639984 .18483989 .33533225 .16900635 .29799906 .16900635 .2519989 .16900635 .20599874 .18483989 .16866558 .21650696 .13999939 .24817403 .111333217 .28967286 .09700012 .34100343 .09700012 .39499919 .09700012 .43866477 .11399841 .47200013 .147995L.55599978 .070007327C.5293376 .04333496 .49750266 .022832236 .460495 .0084991459 .42349754-.005833944 .3830007-.013000488 .33900453-.013000488Z"/>
<path id="font_10_7" d=""/>
<path id="font_10_8" d="M.3919983 .69999697C.4686686 .69999697 .53750106 .6856639 .5984955 .6569977 .6595001 .6283315 .7071686 .58749899 .74150088 .5345001 .77583315 .48150126 .79299929 .42000328 .79299929 .3500061 .79299929 .27999879 .77583315 .21849568 .74150088 .16549683 .7071686 .11249796 .6595001 .07166544 .5984955 .042999269 .53750106 .014333089 .4686686 0 .3919983 0H.102005008V.69999697H.3919983M.3919983 .117004398C.44666545 .117004398 .49449668 .12650045 .53549197 .14549256 .5764974 .16449483 .6081645 .19166057 .63049319 .22698975 .65283206 .2623291 .66400149 .30333457 .66400149 .3500061 .66400149 .39666749 .65283206 .43766276 .63049319 .47299195 .6081645 .5083313 .5764974 .535497 .53549197 .55448916 .49449668 .5734914 .44666545 .58299258 .3919983 .58299258H.22599793V.117004398H.3919983Z"/>
<path id="font_10_9" d="M.15899658 .5720062C.13833618 .5720062 .12083944 .5791728 .10650635 .59350588 .092173259 .6078389 .085006717 .6253357 .085006717 .6459961 .085006717 .6659953 .092173259 .68316146 .10650635 .6974945 .12083944 .7118276 .13833618 .71899417 .15899658 .71899417 .17966716 .71899417 .19716899 .7118276 .21150208 .6974945 .22583516 .68316146 .23300171 .6659953 .23300171 .6459961 .23300171 .6253357 .22583516 .6078389 .21150208 .59350588 .19716899 .5791728 .17966716 .5720062 .15899658 .5720062M.21699524 0H.100997928V.503006H.21699524V0Z"/>
<path id="font_10_10" d="M.3710022 .51600649C.3963318 .51600649 .42166648 .5123393 .44700624 .5050049L.41299439 .39500428C.39100138 .40233866 .369339 .40600587 .3480072 .40600587 .32200624 .40600587 .2975057 .40083824 .27450563 .39050294 .25150553 .38016764 .23283895 .36516319 .21850586 .3454895 .20417278 .32582603 .19700623 .30232749 .19700623 .2749939V0H.08099365V.503006H.18400574L.19099427 .42399598C.21033223 .45266215 .23566692 .4751638 .2669983 .49150086 .29832969 .50783798 .33299766 .51600649 .3710022 .51600649Z"/>
<path id="font_10_11" d="M.16900635 .21000672C.17700196 .17267354 .19616699 .14333599 .22650147 .12199402 .25683595 .10066223 .29466758 .08999634 .33999635 .08999634 .3686625 .08999634 .3959961 .09466044 .42199708 .10398865 .44799806 .11332703 .47099815 .12666321 .4909973 .14399719L.56500247 .06700134C.5369975 .041671754 .50382998 .022003174 .46549989 .0079956059 .4271698-.0060017907 .38633729-.013000488 .34300233-.013000488 .28633119-.013000488 .23582967-.0023345948 .1914978 .018997193 .14716594 .04032898 .11233012 .07099406 .08699036 .11099243 .061660768 .15100098 .04899597 .19767253 .04899597 .25100709 .04899597 .30233766 .060994466 .3480021 .084991458 .3880005 .10899862 .42799888 .14266968 .45933024 .18600464 .48199464 .2293396 .5046692 .27900697 .51600649 .3350067 .51600649 .39033509 .51600649 .4378306 .50483706 .4774933 .48249818 .51716616 .46016947 .54717 .43100486 .5675049 .39500428 .5878398 .3590037 .5980072 .32033793 .5980072 .27900697 .5980072 .26966859 .59717306 .2583313 .59550479 .24499512 .5938365 .23166912 .5920003 .2200063 .58999636 .21000672H.16900635M.33200074 .41200257C.28999839 .41200257 .25499473 .40216575 .22698975 .38249208 .19899495 .36282859 .18033345 .33533225 .17100525 .30000306H.47999574C.4766693 .33266703 .46200563 .35949708 .43600465 .38049317 .41000367 .40149943 .3753357 .41200257 .33200074 .41200257Z"/>
<path id="font_10_12" d="M.30999757 .70599368C.3606669 .70599368 .40649925 .69582626 .4474945 .67549136 .48849998 .6551666 .52050277 .6265004 .5435028 .5894928 .56650289 .5524953 .5780029 .5106659 .5780029 .46400453 .5780029 .41733299 .56650289 .37549845 .5435028 .33850099 .52050277 .3015035 .48849998 .2728373 .4474945 .25250245 .40649925 .23216756 .3606669 .22200012 .30999757 .22200012 .25932823 .22200012 .2134908 .23216756 .17248535 .25250245 .13149007 .2728373 .09949239 .3015035 .07649231 .33850099 .0535024 .37549845 .042007448 .41733299 .042007448 .46400453 .042007448 .5106659 .0535024 .5524953 .07649231 .5894928 .09949239 .6265004 .13149007 .6551666 .17248535 .67549136 .2134908 .69582626 .25932823 .70599368 .30999757 .70599368M.30999757 .2749939C.34999595 .2749939 .3859965 .2829946 .41799928 .29899598 .45000205 .31499736 .47483317 .33733116 .49249269 .3659973 .51016238 .39466349 .5189972 .42733256 .5189972 .46400453 .5189972 .5006663 .51016238 .53333029 .49249269 .56199648 .47483317 .59066268 .45000205 .6129964 .41799928 .6289978 .3859965 .6449992 .34999595 .6529999 .30999757 .6529999 .2693278 .6529999 .23315938 .64516708 .20149231 .62950137 .1698354 .61383566 .14517212 .59166976 .12750244 .56300356 .10983276 .53433737 .100997928 .5013377 .100997928 .46400453 .100997928 .42733256 .10983276 .39466349 .12750244 .3659973 .14517212 .33733116 .17000325 .31499736 .20199585 .29899598 .23399861 .2829946 .26999919 .2749939 .30999757 .2749939M.41900636 .5119934C.41900636 .49266563 .41350303 .47650147 .40249635 .46350099 .39149986 .4505005 .37600199 .44166566 .3560028 .43699647L.43200685 .34100343H.3630066L.29299928 .43299867H.2599945V.34100343H.20300293V.58999636H.32499696C.35300193 .58999636 .3756714 .5828298 .39300538 .5684967 .41033937 .55416366 .41900636 .53532919 .41900636 .5119934M.2599945 .4830017H.32400514C.34866334 .4830017 .36099244 .492335 .36099244 .5110016 .36099244 .5303294 .34866334 .5399933 .32400514 .5399933H.2599945V.4830017Z"/>
</defs>
<g>
<g clip-path="url(#clip_1)">
<path d="M227.832 106.195C227.832 110.504 224.324 114.008 220.012 114.008 215.699 114.008 212.188 110.504 212.188 106.195V85.426H205.438V106.195C205.438 114.223 211.977 120.754 220.012 120.754 228.047 120.754 234.586 114.223 234.586 106.195V85.426H227.832ZM227.832 106.195" fill="#a18b58"/>
</g>
<g clip-path="url(#clip_2)">
<path d="M76.922 92.172C79.816 92.172 82.449 93.301 84.406 95.141L88.281 89.559C85.211 86.98 81.246 85.426 76.922 85.426 67.156 85.426 59.242 93.332 59.242 103.086 59.242 112.836 67.156 120.742 76.922 120.742 81.246 120.742 85.211 119.191 88.281 116.613L84.406 111.027C82.449 112.867 79.816 114 76.922 114 70.895 114 65.992 109.102 65.992 103.086 65.992 97.066 70.895 92.172 76.922 92.172" fill="#a18b58"/>
</g>
<g clip-path="url(#clip_3)">
<path d="M153.078 85.426V109.16L136.625 85.426H129.871V120.742H136.625V97.008L153.078 120.742H159.828V85.426ZM153.078 85.426" fill="#a18b58"/>
</g>
<g clip-path="url(#clip_4)">
<path d="M168.816 85.426V92.168H179.254V120.742H186.004V92.168H196.441V85.426ZM168.816 85.426" fill="#a18b58"/>
</g>
<g clip-path="url(#clip_5)">
<path d="M355.051 85.426V92.168H358.727V120.742H365.48V85.426ZM355.051 85.426" fill="#a18b58"/>
</g>
<g clip-path="url(#clip_6)">
<path d="M97.289 85.426V120.742H120.859V113.996H104.039V106.457H117.547V99.711H104.039V92.168H120.859V85.426ZM97.289 85.426" fill="#a18b58"/>
</g>
<g clip-path="url(#clip_7)">
<path d="M258.852 102.395H250.34V92.172H258.852C261.672 92.172 263.969 94.465 263.969 97.281 263.969 100.102 261.672 102.395 258.852 102.395M270.723 97.281C270.723 90.746 265.398 85.426 258.852 85.426H243.59V120.742H250.34V109.137H254.652L262.695 120.742H270.723L262.32 108.621C267.18 107.137 270.723 102.613 270.723 97.281" fill="#a18b58"/>
</g>
<g clip-path="url(#clip_8)">
<path d="M301.648 85.426 291.75 99.711 281.848 85.426H273.824L288.375 106.422V120.742H295.125V106.422L309.68 85.426ZM301.648 85.426" fill="#a18b58"/>
</g>
<g clip-path="url(#clip_9)">
<path d="M345.492 103.07 345.668 102.82C346.867 101.039 347.57 98.898 347.57 96.59 347.57 95.68 347.461 94.797 347.258 93.949 346.07 89.059 341.66 85.426 336.395 85.426 330.223 85.426 325.219 90.426 325.219 96.59 325.219 96.73 325.223 96.867 325.227 97.004H331.992C331.977 96.867 331.973 96.73 331.973 96.59 331.973 94.152 333.957 92.168 336.395 92.168 338.836 92.168 340.934 94.016 340.82 96.59 340.77 97.727 339.773 99.473 339.398 100.023 339.02 100.57 325.035 120.742 325.035 120.742H348.234V114H337.918ZM345.492 103.07" fill="#a18b58"/>
</g>
<use data-text="C" xlink:href="#font_10_1" transform="matrix(26.193312,0,0,-26.162512,58.77043,157.69423)" fill="#a18b58"/>
<use data-text="o" xlink:href="#font_10_2" transform="matrix(26.193312,0,0,-26.162512,80.222759,157.69423)" fill="#a18b58"/>
<use data-text="n" xlink:href="#font_10_3" transform="matrix(26.193312,0,0,-26.162512,97.79847,157.69423)" fill="#a18b58"/>
<use data-text="t" xlink:href="#font_10_4" transform="matrix(26.193312,0,0,-26.162512,115.03367,157.69423)" fill="#a18b58"/>
<use data-text="a" xlink:href="#font_10_5" transform="matrix(26.193312,0,0,-26.162512,128.9423,157.69423)" fill="#a18b58"/>
<use data-text="c" xlink:href="#font_10_6" transform="matrix(26.193312,0,0,-26.162512,145.52268,157.69423)" fill="#a18b58"/>
<use data-text="t" xlink:href="#font_10_4" transform="matrix(26.193312,0,0,-26.162512,161.00292,157.69423)" fill="#a18b58"/>
<use data-text="o" xlink:href="#font_10_2" transform="matrix(26.193312,0,0,-26.162512,174.91156,157.69423)" fill="#a18b58"/>
<use data-text=" " xlink:href="#font_10_7" transform="matrix(26.193312,0,0,-26.162512,192.48728,157.69423)" fill="#a18b58"/>
<use data-text="D" xlink:href="#font_10_8" transform="matrix(26.193312,0,0,-26.162512,199.8214,157.69423)" fill="#a18b58"/>
<use data-text="i" xlink:href="#font_10_9" transform="matrix(26.193312,0,0,-26.162512,221.7452,157.69423)" fill="#a18b58"/>
<use data-text="r" xlink:href="#font_10_10" transform="matrix(26.193312,0,0,-26.162512,229.78653,157.69423)" fill="#a18b58"/>
<use data-text="e" xlink:href="#font_10_11" transform="matrix(26.193312,0,0,-26.162512,241.75687,157.69423)" fill="#a18b58"/>
<use data-text="c" xlink:href="#font_10_6" transform="matrix(26.193312,0,0,-26.162512,258.41584,157.69423)" fill="#a18b58"/>
<use data-text="t" xlink:href="#font_10_4" transform="matrix(26.193312,0,0,-26.162512,273.8961,157.69423)" fill="#a18b58"/>
<use data-text="o" xlink:href="#font_10_2" transform="matrix(26.193312,0,0,-26.162512,287.80476,157.69423)" fill="#a18b58"/>
<use data-text=" " xlink:href="#font_10_7" transform="matrix(26.193312,0,0,-26.162512,305.38047,157.69423)" fill="#a18b58"/>
<use data-text="&#x00ae;" xlink:href="#font_10_12" transform="matrix(17.69276,0,0,-17.671954,369.45426,124.71137)" fill="#a18b58"/>
</g>
</svg>
